# xmcd
#
# Track frame offsets: 
#        150
#        18141
#        35166
#        51385
#        67819
#        86624
#        104346
#        119072
#        132519
#        146285
#        159947
#        177525
#        188991
#        204046
#
# Disc length: 3152 seconds
#
# Revision: 8
# Processed by: cddbd v1.5.2PL0 Copyright (c) Steve Scherf et al.
# Submitted via: ExactAudioCopy v1.0b3
#
DISCID=c20c4e0e
DTITLE=Carpenters - Yesterday Once More CD1
DYEAR=1998
DGENRE=WPop
TTITLE0=Yesterday Once More
TTITLE1=Superstar
TTITLE2=Rainy Days And Mondays
TTITLE3=(Want You) Back In My Life Again
TTITLE4=Ticket To Ride
TTITLE5=Goodbye To Love
TTITLE6=Bless The Beasts And Children
TTITLE7=It's Going To Take Some Time
TTITLE8=There's A Kind Of Hush
TTITLE9=Sweet, Sweet Smile
TTITLE10=I Won't Last A Day Without You
TTITLE11=For All We Know
TTITLE12=Touch Me When We're Dancing
TTITLE13=Calling Occupants Of Interplanetary Craft
EXTD=Greatest Hits - 1969-1983\nYEAR: 1998  ID3G:  17
EXTT0=
EXTT1=
EXTT2=
EXTT3=
EXTT4=
EXTT5=
EXTT6=a Stanley Kramer Production)
EXTT7=
EXTT8=
EXTT9=
EXTT10=
EXTT11=
EXTT12=
EXTT13=The Recognized Anthem of World Contact Day
PLAYORDER=
